<svg width="24" height="24" viewBox="0 0 40 40" fill="none" xmlns="http://www.w3.org/2000/svg">
<path d="M34.493 11.1694L34.073 11.4861L34.096 12.0117C34.1103 12.3384 34.1105 12.6528 34.1105 13.0079L34.1105 13.0094C34.1253 23.2861 26.5869 35 12.9464 35C10.1828 35 7.45188 34.4335 4.9106 33.3482C7.90871 32.9626 10.7661 31.7391 13.1621 29.7825L15.2711 28.0604L12.5488 28.0082C10.1746 27.9626 8.01445 26.63 6.82463 24.5413C7.57399 24.5318 8.32059 24.4207 9.04583 24.2073L8.96247 22.2679C6.30649 21.729 4.24499 19.5765 3.67204 16.8517C4.43033 17.0966 5.22173 17.2349 6.02121 17.2556L9.36551 17.3423L6.61739 15.4345C4.0495 13.6518 2.98973 10.3216 3.91437 7.35016C8.00101 11.8749 13.633 14.5957 19.6532 14.9185L20.9736 14.9893L20.6821 13.6995C20.1251 11.2349 20.8879 8.64587 22.6594 6.90678C25.384 4.25043 29.6714 4.38375 32.2572 7.21791L32.6388 7.63615L33.1938 7.52414C34.0003 7.36137 34.7936 7.13475 35.5659 6.84858C35.1118 7.37206 34.5833 7.82533 33.9958 8.19077L34.6474 10.0323C35.1328 9.97189 35.615 9.8893 36.0923 9.78542C35.5916 10.2822 35.0571 10.7441 34.493 11.1694Z" stroke="#A5A5A5" stroke-width="2"/>
</svg>
